<svg xmlns="http://www.w3.org/2000/svg" viewBox="0 0 584.19 141.45"><defs><style>.cls-1,.cls-4{fill:#fff;}.cls-2{fill:#ff5c8d;}.cls-3{fill:#ffc0d3;}.cls-4{stroke:#000;stroke-miterlimit:10;stroke-width:5px;}.cls-5{fill:#524a4e;}</style></defs><g id="Camada_2" data-name="Camada 2"><g id="Layer_1" data-name="Layer 1"><ellipse class="cls-1" cx="21.82" cy="61.92" rx="19.42" ry="27.09" transform="matrix(0.85, -0.53, 0.53, 0.85, -29.33, 20.77)"/><ellipse class="cls-1" cx="46.85" cy="30.13" rx="18.86" ry="26.68" transform="translate(-6.02 12.6) rotate(-14.4)"/><ellipse class="cls-1" cx="84.47" cy="26.29" rx="26.29" ry="19.38" transform="translate(55.01 109.71) rotate(-87.83)"/><ellipse class="cls-1" cx="116.97" cy="51.95" rx="26.61" ry="20.44" transform="translate(35.52 150.67) rotate(-74.42)"/><path class="cls-1" d="M134.07,97.5q-5.49-5.28-10.28-10.29c-9.21-9.64-16.42-18.5-21.48-26.53-7.25-10-19.7-12.13-34-11.45h0c-14.1,2.42-25.8,7.18-30.71,18.53-3.2,8.94-8.32,19.16-15.23,30.57q-3.59,5.93-7.8,12.26c-7.19,14,12.15,37.61,37.16,27.17,0,0,18.52-9.73,25.26-9.34v0c6.49-1.84,26.68,3.65,26.68,3.65C130.35,136.85,144.13,109.64,134.07,97.5Z"/><ellipse class="cls-2" cx="22.22" cy="63.18" rx="15.81" ry="21.92" transform="translate(-29.94 21.17) rotate(-31.78)"/><ellipse class="cls-2" cx="48.14" cy="31.05" rx="15.81" ry="21.92" transform="translate(-6.21 12.95) rotate(-14.4)"/><ellipse class="cls-2" cx="85.77" cy="26.93" rx="21.92" ry="15.81" transform="translate(55.62 111.62) rotate(-87.83)"/><ellipse class="cls-2" cx="118.89" cy="52.59" rx="21.92" ry="15.81" transform="translate(36.3 152.99) rotate(-74.42)"/><path class="cls-2" d="M128.71,98.77q-4.86-4.67-9.09-9.1c-8.15-8.53-14.53-16.37-19-23.47C94.2,57.33,83.19,55.46,70.54,56.07v0c-12.48,2.15-22.82,6.36-27.16,16.4C40.54,80.36,36,89.4,29.9,99.5q-3.18,5.23-6.9,10.84c-6.36,12.41,10.75,33.27,32.87,24,0,0,16.38-8.61,22.35-8.26v0c5.75-1.63,23.6,3.22,23.6,3.22C125.42,133.58,137.61,109.52,128.71,98.77ZM98.46,82.65c-.82,9.88-7.72,22.22-21,37.15v-.12C61.31,108,51.91,97.45,49,88c-2.61-8.89.92-15.4,10.81-15.6,7.07,1.11,11.87,5.15,13.91,12.77.36-7.83,4.17-12.8,10.81-15.4C94.22,67.81,99.07,73.4,98.46,82.65Z"/><ellipse class="cls-3" cx="20.64" cy="60.37" rx="15.81" ry="21.92" transform="translate(-28.7 19.92) rotate(-31.78)"/><ellipse class="cls-3" cx="46.56" cy="28.24" rx="15.81" ry="21.92" transform="translate(-5.56 12.47) rotate(-14.4)"/><ellipse class="cls-3" cx="84.19" cy="24.12" rx="21.92" ry="15.81" transform="translate(56.91 107.34) rotate(-87.83)"/><ellipse class="cls-3" cx="117.31" cy="49.78" rx="21.92" ry="15.81" transform="matrix(0.27, -0.96, 0.96, 0.27, 37.85, 149.41)"/><path class="cls-3" d="M127.13,96q-4.86-4.68-9.1-9.11c-8.15-8.52-14.52-16.37-19-23.47C92.62,54.53,81.6,52.66,69,53.27v0c-12.48,2.14-22.83,6.35-27.17,16.4-2.83,7.9-7.36,16.95-13.48,27q-3.16,5.24-6.9,10.84c-6.35,12.42,10.75,33.28,32.88,24,0,0,16.38-8.6,22.34-8.25h0c5.74-1.63,23.6,3.22,23.6,3.22C123.84,130.78,136,106.71,127.13,96ZM96.87,79.84c-.81,9.88-7.72,22.23-21,37.16l0-.13C59.73,105.19,50.33,94.64,47.4,85.19c-2.6-8.9.93-15.41,10.82-15.61,7.07,1.11,11.87,5.16,13.91,12.77.36-7.83,4.17-12.79,10.8-15.4C92.63,65,97.49,70.59,96.87,79.84Z"/><path class="cls-4" d="M175.07,132.59l2.07-58q.13-6.69,1.28-9.71a9.75,9.75,0,0,1,2.37-3.25l-.06-.27-.94.24q-1.93.5-7.52,4.29-6.15,4.08-8.69,4.74a2.75,2.75,0,0,1-2,0,2.22,2.22,0,0,1-.92-1.48,14.3,14.3,0,0,1,0-6.26,22.73,22.73,0,0,1,2.43-6.75,15.42,15.42,0,0,1,4-4.89A70.48,70.48,0,0,1,182,43.66a177.32,177.32,0,0,1,21.32-6.83q12.57-3.22,22.41-1.53a29.67,29.67,0,0,1,16.42,8.3q6.57,6.61,9.4,17.62a63.35,63.35,0,0,1,1.35,23.44,58.66,58.66,0,0,1-6.76,21.81q-12.28,22.34-40.56,29.59a90.23,90.23,0,0,1-17,2.79c-5.27.3-8.88-.06-10.86-1.08a4.41,4.41,0,0,1-2.45-3.16A12.12,12.12,0,0,1,175.07,132.59Zm28-78.38-.32,54.46c0,.33,0,1.21.1,2.62a34.91,34.91,0,0,1-.64,8.89,28.36,28.36,0,0,1-2.09,6c1.31-.25,2.77-.57,4.37-1a52.13,52.13,0,0,0,9.5-3.26,24.66,24.66,0,0,0,6.53-4.5,29.18,29.18,0,0,0,5-6.45,40.76,40.76,0,0,0,5.13-15.41,45.36,45.36,0,0,0-1.21-17.07,43.84,43.84,0,0,0-6.17-14A25.89,25.89,0,0,0,214,55.81,16.43,16.43,0,0,0,203.09,54.21Z"/><path class="cls-4" d="M289.58,95q1.77,3.84,6.25,2.69,5-1.29,11.52-9.25,3.79-4.62,5.4-5a7.24,7.24,0,0,1,4,.12c1.34.41,2.11,1,2.3,1.76s-.17,2-1.12,3.66a73.29,73.29,0,0,1-6.37,9,73,73,0,0,1-7.45,7.92,50.42,50.42,0,0,1-7.64,5.75,27.05,27.05,0,0,1-7.28,3.27q-8.35,2.15-14.6-1.37t-8.3-11.5a44.68,44.68,0,0,1-.9-14.47,64.83,64.83,0,0,1,3.42-16.23,49.88,49.88,0,0,1,9.61-16.42q7.88-8.74,16.56-11,6.28-1.62,10.88,1.46t6.4,10.06a27,27,0,0,1,.07,12.07A42.31,42.31,0,0,1,306.87,81a45.84,45.84,0,0,1-7.09,9.4c-2.48,2.45-4.82,4-7,4.52A7.17,7.17,0,0,1,289.58,95Zm-.68-2.11a20.91,20.91,0,0,0,3.61-5.36,33.72,33.72,0,0,0,2.91-11.41,43.54,43.54,0,0,0,.29-8.88,48.52,48.52,0,0,0-1.32-8.74c-.64-2.46-1.46-3.56-2.49-3.3q-2.14.56-4.12,11.15a85,85,0,0,0-1.32,12.46A37.34,37.34,0,0,0,287.33,89,21.83,21.83,0,0,0,288.9,92.85Z"/><path class="cls-4" d="M365.52,73l-.89,1.23c-.19.2-1.39,1.72-3.6,4.58q-6.4,8.37-10.68,13.36A70.56,70.56,0,0,1,343,99.8a14.13,14.13,0,0,1-5.17,3.16,7,7,0,0,1-6.55-1.51,13.22,13.22,0,0,1-4.16-7.19,89.87,89.87,0,0,1-2.41-19.38,148.88,148.88,0,0,1,1.06-22.77q1.51-12.7,7.34-16.91a13.43,13.43,0,0,1,5.09-2.38,9.46,9.46,0,0,1,7.49.86,9.71,9.71,0,0,1,4.38,6.24,22.92,22.92,0,0,1,.56,6.5,57.82,57.82,0,0,1-1.21,8.68l-.3,2.15Q346.55,71,347.23,73.58c.26,1,.75,1.45,1.46,1.27a4.66,4.66,0,0,0,2.25-2.08,71.2,71.2,0,0,0,3.62-6.44q1.43-3.07,4.25-7.89l1.84-3.12,1.56-2.83A93.27,93.27,0,0,1,370.76,40q3.51-4.1,6.33-4.81,5.36-1.38,7.75,8c.33,1.3.77,3.65,1.3,7q1.68,9.87,3.41,16.58l.73,2.43c.21.73.46,1.68.76,2.84q1.62,4.38,2.45,6.74l1.45,3.71c.34,1.34-.56,2.84-2.7,4.48a21.64,21.64,0,0,1-8,3.69,15.75,15.75,0,0,1-7.89.2,11.38,11.38,0,0,1-6-3.86,19.42,19.42,0,0,1-3.71-7.77c-.1-.41-.24-1.12-.41-2.15S365.85,74.67,365.52,73Z"/><path class="cls-5" d="M179.31,132.59l2.07-58q.13-6.69,1.28-9.71A9.75,9.75,0,0,1,185,61.65l-.06-.27-.94.24q-1.93.5-7.52,4.29-6.15,4.08-8.69,4.74a2.75,2.75,0,0,1-1.95,0,2.22,2.22,0,0,1-.92-1.48,14.3,14.3,0,0,1,0-6.26,22.73,22.73,0,0,1,2.43-6.75,15.42,15.42,0,0,1,4-4.89,70.48,70.48,0,0,1,14.86-7.61,176.92,176.92,0,0,1,21.33-6.83q12.56-3.22,22.4-1.53a29.67,29.67,0,0,1,16.42,8.3q6.57,6.61,9.4,17.62a63.35,63.35,0,0,1,1.35,23.44,58.66,58.66,0,0,1-6.76,21.81q-12.28,22.34-40.56,29.59a90.23,90.23,0,0,1-17,2.79q-7.89.45-10.86-1.08a4.41,4.41,0,0,1-2.45-3.16A12.12,12.12,0,0,1,179.31,132.59Zm28-78.38L207,108.67c0,.33,0,1.21.1,2.62a34.45,34.45,0,0,1-.64,8.89,28.36,28.36,0,0,1-2.09,6c1.31-.25,2.77-.57,4.37-1a52.13,52.13,0,0,0,9.5-3.26,24.66,24.66,0,0,0,6.53-4.5,29.51,29.51,0,0,0,5.05-6.45A40.92,40.92,0,0,0,235,95.55a45.36,45.36,0,0,0-1.21-17.07,43.84,43.84,0,0,0-6.17-14,25.89,25.89,0,0,0-9.35-8.65A16.43,16.43,0,0,0,207.33,54.21Z"/><path class="cls-5" d="M293.82,95q1.77,3.84,6.25,2.69,5-1.29,11.52-9.25,3.8-4.62,5.4-5a7.24,7.24,0,0,1,4,.12c1.34.41,2.11,1,2.3,1.76s-.17,2-1.12,3.66a73.29,73.29,0,0,1-6.37,9,73,73,0,0,1-7.45,7.92,50.42,50.42,0,0,1-7.64,5.75,27.05,27.05,0,0,1-7.28,3.27q-8.35,2.15-14.6-1.37T270.56,102a44.38,44.38,0,0,1-.91-14.47,64.83,64.83,0,0,1,3.42-16.23,49.88,49.88,0,0,1,9.61-16.42q7.88-8.74,16.56-11,6.28-1.62,10.88,1.46t6.4,10.06a27,27,0,0,1,.07,12.07A42.08,42.08,0,0,1,311.11,81a45.84,45.84,0,0,1-7.09,9.4c-2.48,2.45-4.82,4-7,4.52A7.17,7.17,0,0,1,293.82,95Zm-.68-2.11a20.91,20.91,0,0,0,3.61-5.36,33.72,33.72,0,0,0,2.91-11.41A43.54,43.54,0,0,0,300,67.2a48.52,48.52,0,0,0-1.32-8.74c-.64-2.46-1.46-3.56-2.49-3.3Q294,55.72,292,66.31a85,85,0,0,0-1.32,12.46A37.34,37.34,0,0,0,291.57,89,21.83,21.83,0,0,0,293.14,92.85Z"/><path class="cls-5" d="M369.76,73l-.89,1.23c-.19.2-1.39,1.72-3.6,4.58q-6.4,8.37-10.68,13.36a70.56,70.56,0,0,1-7.31,7.6,14.13,14.13,0,0,1-5.17,3.16,7,7,0,0,1-6.55-1.51,13.22,13.22,0,0,1-4.16-7.19A89.87,89.87,0,0,1,329,74.88a148.88,148.88,0,0,1,1.06-22.77q1.51-12.7,7.34-16.91a13.43,13.43,0,0,1,5.09-2.38,9.46,9.46,0,0,1,7.49.86,9.71,9.71,0,0,1,4.38,6.24,22.92,22.92,0,0,1,.56,6.5,59,59,0,0,1-1.2,8.68l-.31,2.15Q350.79,71,351.47,73.58c.26,1,.75,1.45,1.46,1.27a4.66,4.66,0,0,0,2.25-2.08,68.77,68.77,0,0,0,3.62-6.44q1.43-3.07,4.25-7.89l1.84-3.12,1.56-2.83A93.27,93.27,0,0,1,375,40q3.51-4.1,6.33-4.81,5.35-1.38,7.75,8c.33,1.3.77,3.65,1.3,7q1.68,9.87,3.41,16.58l.73,2.43c.21.73.46,1.68.76,2.84q1.62,4.38,2.45,6.74l1.45,3.71c.34,1.34-.56,2.84-2.7,4.48a21.64,21.64,0,0,1-8,3.69,15.75,15.75,0,0,1-7.89.2,11.38,11.38,0,0,1-6-3.86,19.42,19.42,0,0,1-3.71-7.77c-.1-.41-.24-1.12-.41-2.15S370.09,74.67,369.76,73Z"/><path class="cls-4" d="M420.27,54.65l.33-2.59A16.38,16.38,0,0,0,417,53.39a30.75,30.75,0,0,0-3.31,2.1,13,13,0,0,1-3.23,1.83,2.46,2.46,0,0,1-2.1-.39A3.34,3.34,0,0,1,407,55a9.31,9.31,0,0,1,.72-5.95,11.7,11.7,0,0,1,4.17-5.25,49.19,49.19,0,0,1,9.66-5.24,85.54,85.54,0,0,1,12.28-4.19,74.48,74.48,0,0,1,12.86-2.23,37.1,37.1,0,0,1,10.75.68,30.24,30.24,0,0,1,9,3.55,23.61,23.61,0,0,1,7,6.35,25.18,25.18,0,0,1,4.15,8.81,33.76,33.76,0,0,1,.78,10.39,53.75,53.75,0,0,1-2.15,12,44.84,44.84,0,0,1-4.61,10.63,38.25,38.25,0,0,1-9.16,10,31.51,31.51,0,0,1-11.38,6,9.78,9.78,0,0,1-4.33.22c-1.32-.26-2.09-.79-2.29-1.59a5.5,5.5,0,0,1,.49-3.89,26.09,26.09,0,0,1,4.11-5.38,34.58,34.58,0,0,0,4.86-6,25.49,25.49,0,0,0,2.89-9.11,28.91,28.91,0,0,0-1-10.34,21.77,21.77,0,0,0-4.26-8.85,19.23,19.23,0,0,0-7.84-5.29l-1.5,32.16L442,88.07q-.27,3.36-.15,11.34.06,13.8-1.53,19.57a24.07,24.07,0,0,1-2.15,5.21,31.76,31.76,0,0,1-6.86,7,22.86,22.86,0,0,1-7.91,4.29,5.19,5.19,0,0,1-4.07-.42,5.45,5.45,0,0,1-2.36-3.51,36.84,36.84,0,0,1-.7-8.41q0-5.66.77-20.44l.24-4.07.22-4.42Z"/><path class="cls-4" d="M507.14,95.68c1.17,2.56,3.26,3.46,6.24,2.69q5-1.29,11.52-9.25,3.79-4.62,5.4-5a7.24,7.24,0,0,1,4,.12c1.34.41,2.11,1,2.31,1.76s-.17,2-1.13,3.66a72.23,72.23,0,0,1-6.37,9,73.91,73.91,0,0,1-7.44,7.92,51.44,51.44,0,0,1-7.64,5.75,27.1,27.1,0,0,1-7.29,3.27q-8.36,2.15-14.6-1.37t-8.29-11.5a44.13,44.13,0,0,1-.9-14.47A64,64,0,0,1,486.39,72,49.86,49.86,0,0,1,496,55.61q7.88-8.74,16.56-11,6.29-1.62,10.89,1.46t6.39,10.06c.93,3.62.86,6.29,0,10.72a48.76,48.76,0,0,1-5.37,14.85,45.85,45.85,0,0,1-7.1,9.4q-3.72,3.68-7,4.52A7.12,7.12,0,0,1,507.14,95.68Z"/><path class="cls-4" d="M506.45,93.57a20.65,20.65,0,0,0,3.61-5.36A33.26,33.26,0,0,0,513,76.8a42.84,42.84,0,0,0,.29-8.88,46.81,46.81,0,0,0-1.32-8.74q-.94-3.69-2.49-3.3-2.13.55-4.12,11.15A85,85,0,0,0,504,79.49a37.34,37.34,0,0,0,.87,10.19A22.63,22.63,0,0,0,506.45,93.57Z"/><path class="cls-4" d="M543.1,35.84l.06-.87q1.22-13.62,3.12-19.54a15.42,15.42,0,0,1,3.18-5.4q4.31-4.6,8.85-5.78a6.33,6.33,0,0,1,4.4.16A4.51,4.51,0,0,1,565,7.55q.39,1.55-.4,6.82a95,95,0,0,0-1.3,16.14,18.18,18.18,0,0,1,2.31-.16,16.89,16.89,0,0,1,5.64,0,3.08,3.08,0,0,1,2,2.46,13,13,0,0,1-.12,7,11.4,11.4,0,0,1-3.6,5.65,22.93,22.93,0,0,1-6.8,3.18c-.13,1.89-.15,4.45-.08,7.67q.45,4.18,1.54,11.49a33.5,33.5,0,0,0,.86,5q2.72,10.61,13,8l.4-.1.2,0c.8-.21,1.24-.18,1.3.09q.29,1.08-1.34,4.21a30.77,30.77,0,0,1-3.85,5.78,27.89,27.89,0,0,1-5.6,4.87,19.81,19.81,0,0,1-6,2.83,15.28,15.28,0,0,1-12.64-1.84q-5.61-3.63-7.63-11.49A45.57,45.57,0,0,1,541.77,76q-.22-5.75-.09-15.5c0-1.15,0-2.35,0-3.62s0-2,0-2.25a5.86,5.86,0,0,1-4.11-.16,4.8,4.8,0,0,1-2-3.2,12.46,12.46,0,0,1,1.19-8.82A14.27,14.27,0,0,1,543.1,35.84Z"/><path class="cls-5" d="M424.51,54.65l.33-2.59a16.38,16.38,0,0,0-3.65,1.33,30.75,30.75,0,0,0-3.31,2.1,13,13,0,0,1-3.23,1.83,2.46,2.46,0,0,1-2.1-.39,3.34,3.34,0,0,1-1.28-2A9.31,9.31,0,0,1,412,49a11.7,11.7,0,0,1,4.17-5.25,49.48,49.48,0,0,1,9.66-5.24,85.54,85.54,0,0,1,12.28-4.19A74.48,74.48,0,0,1,451,32.11a37.1,37.1,0,0,1,10.75.68,30.24,30.24,0,0,1,9,3.55,23.61,23.61,0,0,1,7,6.35,25.18,25.18,0,0,1,4.15,8.81,33.76,33.76,0,0,1,.78,10.39,53.75,53.75,0,0,1-2.15,12,44.84,44.84,0,0,1-4.61,10.63,38.08,38.08,0,0,1-9.16,10,31.43,31.43,0,0,1-11.38,6,9.78,9.78,0,0,1-4.33.22c-1.32-.26-2.09-.79-2.29-1.59a5.5,5.5,0,0,1,.49-3.89,26.09,26.09,0,0,1,4.11-5.38,34.58,34.58,0,0,0,4.86-6,25.49,25.49,0,0,0,2.89-9.11,29.11,29.11,0,0,0-1-10.34,21.91,21.91,0,0,0-4.27-8.85A19.23,19.23,0,0,0,448,50.25l-1.5,32.16-.33,5.66q-.27,3.36-.15,11.34.06,13.8-1.53,19.57a24.07,24.07,0,0,1-2.15,5.21,31.76,31.76,0,0,1-6.86,7,22.86,22.86,0,0,1-7.91,4.29,5.19,5.19,0,0,1-4.07-.42,5.45,5.45,0,0,1-2.36-3.51,36.84,36.84,0,0,1-.7-8.41q0-5.66.77-20.44l.24-4.07.22-4.42Z"/><path class="cls-5" d="M547.34,35.84l.06-.87q1.22-13.62,3.12-19.54A15.42,15.42,0,0,1,553.7,10q4.31-4.6,8.85-5.78a6.33,6.33,0,0,1,4.4.16,4.51,4.51,0,0,1,2.3,3.14q.39,1.55-.4,6.82a95,95,0,0,0-1.3,16.14,18.18,18.18,0,0,1,2.31-.16,16.89,16.89,0,0,1,5.64,0,3.08,3.08,0,0,1,2,2.46,13,13,0,0,1-.12,7,11.4,11.4,0,0,1-3.6,5.65A22.93,22.93,0,0,1,567,48.7c-.13,1.89-.15,4.45-.08,7.67q.45,4.18,1.54,11.49a33.5,33.5,0,0,0,.86,5q2.72,10.61,13,8l.4-.1.2,0c.8-.21,1.24-.18,1.31.09q.27,1.08-1.35,4.21A30.77,30.77,0,0,1,579,90.76a27.89,27.89,0,0,1-5.6,4.87,19.81,19.81,0,0,1-6,2.83,15.28,15.28,0,0,1-12.64-1.84Q549.12,93,547.1,85.13A45.57,45.57,0,0,1,546,76q-.22-5.75-.09-15.5c0-1.15,0-2.35,0-3.62s0-2,0-2.25a5.86,5.86,0,0,1-4.11-.16,4.8,4.8,0,0,1-2-3.2A12.46,12.46,0,0,1,541,42.49,14.27,14.27,0,0,1,547.34,35.84Z"/><path class="cls-5" d="M539.77,85.8q-.3-1.14-2.31-1.77a7.33,7.33,0,0,0-4-.11c-1.07.28-2.87,2-5.4,5q-6.51,8-11.52,9.25-4.47,1.16-6.24-2.69a7.12,7.12,0,0,0,3.19,0q3.28-.84,7-4.52a45.85,45.85,0,0,0,7.1-9.4A49,49,0,0,0,533,66.71c.88-4.42.95-7.09,0-10.71-1.19-4.66-3.33-8-6.39-10.06s-6.7-2.54-10.89-1.46q-8.69,2.22-16.56,11a49.86,49.86,0,0,0-9.6,16.42,64,64,0,0,0-3.42,16.23,44.13,44.13,0,0,0,.9,14.47q2.06,8,8.3,11.5t14.59,1.37a27.42,27.42,0,0,0,7.29-3.27,51.44,51.44,0,0,0,7.64-5.75,72.92,72.92,0,0,0,7.44-7.92,73,73,0,0,0,6.37-9C539.6,87.83,540,86.61,539.77,85.8Zm-30.18,7.61A23,23,0,0,1,508,89.52a37.34,37.34,0,0,1-.87-10.19,83.82,83.82,0,0,1,1.33-12.47q2-10.59,4.12-11.14,1.53-.4,2.48,3.3a46.81,46.81,0,0,1,1.32,8.74,42.84,42.84,0,0,1-.29,8.88A33.14,33.14,0,0,1,513.2,88,20.52,20.52,0,0,1,509.59,93.41Z"/></g></g></svg>