<svg xmlns="http://www.w3.org/2000/svg" viewBox="0 0 898.2 686.04"><defs><style>.cls-1,.cls-2,.cls-5{fill:#fff;}.cls-1{stroke:#fff;stroke-width:44px;}.cls-1,.cls-5{stroke-miterlimit:10;}.cls-3{fill:#ff5c8d;}.cls-4{fill:#ffc0d3;}.cls-5{stroke:#000;stroke-width:5px;}.cls-6{fill:#524a4e;}</style></defs><g id="Camada_2" data-name="Camada 2"><g id="Camada_1-2" data-name="Camada 1"><path class="cls-1" d="M51.64,651.23l4.17-116.87q.27-13.49,2.59-19.55a19.24,19.24,0,0,1,4.77-6.57L63,507.7l-1.88.49q-3.91,1-15.15,8.65-12.39,8.22-17.51,9.54c-1.8.46-3.11.46-3.95,0a4.4,4.4,0,0,1-1.84-3,28.84,28.84,0,0,1,0-12.61,45.82,45.82,0,0,1,4.91-13.59,31.11,31.11,0,0,1,8.09-9.87q10.55-7.6,30-15.33a356.77,356.77,0,0,1,43-13.77q25.34-6.51,45.16-3.09t33.09,16.74q13.24,13.33,18.95,35.51a127.18,127.18,0,0,1,2.72,47.25q-3,24.93-13.63,44-24.76,45-81.75,59.63a179.36,179.36,0,0,1-34.23,5.62q-15.93.92-21.88-2.17c-2.49-1.09-4.13-3.21-4.94-6.37A23,23,0,0,1,51.64,651.23Zm56.47-158L107.46,603q0,1,.21,5.28.31,11.31-1.28,17.92a57.79,57.79,0,0,1-4.23,12q4-.74,8.82-2a106.4,106.4,0,0,0,19.13-6.57,50.46,50.46,0,0,0,13.18-9.08,60.3,60.3,0,0,0,10.16-13,82.72,82.72,0,0,0,10.33-31.06,91.4,91.4,0,0,0-2.45-34.42,88,88,0,0,0-12.42-28.24q-8.26-12-18.85-17.44A33.06,33.06,0,0,0,108.11,493.25Z"/><path class="cls-1" d="M282.43,575.39q3.57,7.74,12.59,5.42,10.11-2.59,23.21-18.65,7.66-9.33,10.9-10.15a14.47,14.47,0,0,1,8.09.23q4.06,1.26,4.65,3.56c.42,1.62-.34,4.08-2.27,7.36a143.92,143.92,0,0,1-12.84,18.22,147.29,147.29,0,0,1-15,16,102.26,102.26,0,0,1-15.4,11.59,54.74,54.74,0,0,1-14.68,6.58q-16.83,4.34-29.42-2.75t-16.72-23.18q-3.16-12.32-1.82-29.17a130,130,0,0,1,6.9-32.7A100.19,100.19,0,0,1,260,494.63q15.86-17.62,33.37-22.12,12.66-3.25,21.94,2.95t12.88,20.27q2.82,10.95.15,24.33a84.76,84.76,0,0,1-11,27.2,92.32,92.32,0,0,1-14.3,19q-7.5,7.41-14.1,9.1A14.41,14.41,0,0,1,282.43,575.39Zm-1.38-4.26a41.9,41.9,0,0,0,7.28-10.81,67.62,67.62,0,0,0,5.87-23,87.63,87.63,0,0,0,.58-17.89,96,96,0,0,0-2.66-17.63q-1.92-7.44-5-6.65-4.32,1.11-8.31,22.47a171.47,171.47,0,0,0-2.66,25.13q-.37,12.27,1.75,20.53A45.69,45.69,0,0,0,281.05,571.13Z"/><path class="cls-1" d="M435.49,531.19l-1.81,2.48q-.57.58-7.25,9.22-12.9,16.86-21.51,26.93a143.42,143.42,0,0,1-14.74,15.32q-6.12,5.25-10.43,6.36a14.17,14.17,0,0,1-13.19-3q-5.93-4.89-8.39-14.5-4.17-16.23-4.86-39.06a301.32,301.32,0,0,1,2.14-45.9q3-25.59,14.8-34.08a27.16,27.16,0,0,1,10.25-4.8q8.49-2.17,15.1,1.74t8.82,12.57a46.25,46.25,0,0,1,1.13,13.11A118.73,118.73,0,0,1,403.13,495l-.62,4.34q-5.25,27.63-3.9,32.91c.54,2.08,1.52,2.93,3,2.56s2.85-1.74,4.52-4.19a136.88,136.88,0,0,0,7.3-13q2.87-6.21,8.58-15.9l3.7-6.28,3.14-5.71q10.14-17,17.24-25.27t12.75-9.69q10.79-2.76,15.62,16,1,3.92,2.63,14.17,3.39,19.9,6.86,33.43.82,2.67,1.47,4.88t1.54,5.74q3.27,8.82,4.93,13.58l2.92,7.47q1.05,4.07-5.43,9a44,44,0,0,1-16,7.44,31.66,31.66,0,0,1-15.91.4,23,23,0,0,1-12.11-7.77q-5-5.94-7.47-15.68c-.21-.81-.49-2.25-.83-4.33S436.14,534.48,435.49,531.19Z"/><path class="cls-1" d="M60.19,651.23l4.16-116.87q.27-13.49,2.59-19.55a19.27,19.27,0,0,1,4.78-6.57l-.14-.54-1.89.49q-3.9,1-15.15,8.65Q42.15,525.06,37,526.38c-1.79.46-3.11.46-3.94,0a4.44,4.44,0,0,1-1.85-3,29,29,0,0,1,0-12.61,46.1,46.1,0,0,1,4.91-13.59,31.13,31.13,0,0,1,8.1-9.87q10.53-7.6,29.95-15.33a356.2,356.2,0,0,1,43-13.77q25.32-6.51,45.15-3.09t33.09,16.74q13.26,13.33,19,35.51a127.39,127.39,0,0,1,2.73,47.25q-3,24.93-13.63,44-24.77,45-81.75,59.63a179.46,179.46,0,0,1-34.24,5.62q-15.91.92-21.88-2.17-3.72-1.63-4.94-6.37A24.27,24.27,0,0,1,60.19,651.23Zm56.47-158L116,603q0,1,.21,5.28.32,11.31-1.29,17.92a56.65,56.65,0,0,1-4.23,12q4-.74,8.83-2a106.4,106.4,0,0,0,19.13-6.57,50.41,50.41,0,0,0,13.17-9.08,60,60,0,0,0,10.16-13,82.73,82.73,0,0,0,10.34-31.06,91.61,91.61,0,0,0-2.45-34.42,88,88,0,0,0-12.43-28.24q-8.25-12-18.84-17.44A33.07,33.07,0,0,0,116.66,493.25Z"/><path class="cls-1" d="M291,575.39q3.57,7.74,12.59,5.42,10.11-2.59,23.21-18.65,7.65-9.33,10.89-10.15a14.51,14.51,0,0,1,8.1.23q4.07,1.26,4.65,3.56c.42,1.62-.34,4.08-2.28,7.36a144.83,144.83,0,0,1-12.83,18.22,147.29,147.29,0,0,1-15,16,102.77,102.77,0,0,1-15.4,11.59,54.74,54.74,0,0,1-14.68,6.58q-16.85,4.34-29.43-2.75t-16.72-23.18q-3.15-12.32-1.81-29.17a129.54,129.54,0,0,1,6.89-32.7,100.54,100.54,0,0,1,19.36-33.09Q284.39,477,301.9,472.51q12.66-3.25,21.93,2.95t12.89,20.27q2.8,10.95.14,24.33a85,85,0,0,1-11,27.2,92.68,92.68,0,0,1-14.3,19q-7.51,7.41-14.11,9.1A14.36,14.36,0,0,1,291,575.39Zm-1.38-4.26a41.58,41.58,0,0,0,7.27-10.81,67.39,67.39,0,0,0,5.87-23,86.22,86.22,0,0,0,.58-17.89,95.1,95.1,0,0,0-2.66-17.63q-1.91-7.44-5-6.65-4.31,1.11-8.3,22.47a172.89,172.89,0,0,0-2.67,25.13q-.36,12.27,1.76,20.53A44.87,44.87,0,0,0,289.6,571.13Z"/><path class="cls-1" d="M444,531.19l-1.8,2.48q-.57.58-7.25,9.22-12.9,16.86-21.52,26.93a142.5,142.5,0,0,1-14.73,15.32q-6.12,5.25-10.43,6.36a14.19,14.19,0,0,1-13.2-3q-5.93-4.89-8.39-14.5-4.17-16.23-4.86-39.06A301.33,301.33,0,0,1,364,489q3-25.59,14.79-34.08a27.29,27.29,0,0,1,10.26-4.8q8.49-2.17,15.09,1.74T413,464.44a46.61,46.61,0,0,1,1.13,13.11A117.58,117.58,0,0,1,411.67,495l-.61,4.34q-5.26,27.63-3.9,32.91c.53,2.08,1.52,2.93,2.95,2.56s2.86-1.74,4.53-4.19a139.2,139.2,0,0,0,7.3-13q2.87-6.21,8.57-15.9l3.71-6.28,3.13-5.71q10.15-17,17.24-25.27t12.75-9.69q10.8-2.76,15.62,16c.68,2.61,1.55,7.34,2.64,14.17q3.39,19.9,6.86,33.43.82,2.67,1.47,4.88c.42,1.48.94,3.39,1.54,5.74q3.27,8.82,4.92,13.58l2.93,7.47q1,4.07-5.44,9a43.88,43.88,0,0,1-16,7.44,31.66,31.66,0,0,1-15.91.4,23,23,0,0,1-12.12-7.77q-5-5.94-7.47-15.68c-.21-.81-.48-2.25-.82-4.33S444.69,534.48,444,531.19Z"/><path class="cls-1" d="M545.82,494.13l.67-5.22a34.24,34.24,0,0,0-7.35,2.68,59.21,59.21,0,0,0-6.66,4.24c-3.09,2.14-5.27,3.37-6.52,3.69a4.88,4.88,0,0,1-4.23-.79,6.68,6.68,0,0,1-2.59-4q-1.35-5.28,1.45-12A23.63,23.63,0,0,1,529,472.21a99.34,99.34,0,0,1,19.47-10.56,171.25,171.25,0,0,1,24.75-8.44,148.38,148.38,0,0,1,25.92-4.49,74.31,74.31,0,0,1,21.67,1.36,61.5,61.5,0,0,1,18.2,7.15A47.71,47.71,0,0,1,653.14,470a50.66,50.66,0,0,1,8.36,17.75,68.2,68.2,0,0,1,1.58,20.94,107.44,107.44,0,0,1-4.35,24.19,89.45,89.45,0,0,1-9.29,21.42A76.51,76.51,0,0,1,631,574.44q-11.9,9.31-22.94,12.16a19.77,19.77,0,0,1-8.71.43c-2.67-.51-4.22-1.58-4.63-3.21a11.1,11.1,0,0,1,1-7.83q2-4,8.27-10.84a70.3,70.3,0,0,0,9.8-12.18,51.39,51.39,0,0,0,5.84-18.37q1-9.2-2-20.83-2.85-11.1-8.59-17.84a38.72,38.72,0,0,0-15.8-10.65l-3,64.8-.65,11.42q-.57,6.78-.31,22.86.11,27.81-3.08,39.44a49.63,49.63,0,0,1-4.35,10.49A63.41,63.41,0,0,1,568,648.43q-8.81,6.81-16,8.64a10.43,10.43,0,0,1-8.19-.86q-3.47-2.06-4.76-7.07-1.43-5.53-1.4-16.94T539.25,591l.48-8.2.44-8.9Z"/><path class="cls-1" d="M720.91,576.84q3.55,7.74,12.59,5.42,10.1-2.6,23.21-18.65,7.65-9.32,10.89-10.15a14.6,14.6,0,0,1,8.1.23q4,1.26,4.65,3.56t-2.28,7.36a144.71,144.71,0,0,1-12.84,18.23,147.05,147.05,0,0,1-15,16,102.84,102.84,0,0,1-15.41,11.59A54.93,54.93,0,0,1,720.16,617q-16.85,4.32-29.43-2.76T674,591q-3.15-12.3-1.82-29.17a130,130,0,0,1,6.9-32.7,100.36,100.36,0,0,1,19.36-33.09q15.85-17.62,33.37-22.12,12.66-3.25,21.94,3t12.89,20.27c1.87,7.3,1.72,12.69-.06,21.6s-5.26,20.71-10.83,29.93a92.07,92.07,0,0,1-14.31,19q-7.5,7.41-14.1,9.1A14.36,14.36,0,0,1,720.91,576.84Z"/><path class="cls-1" d="M719.53,572.58a41.84,41.84,0,0,0,7.27-10.81,67.39,67.39,0,0,0,5.87-23,86.92,86.92,0,0,0,.58-17.89,95.1,95.1,0,0,0-2.66-17.63q-1.9-7.44-5-6.64-4.3,1.1-8.3,22.46a170.15,170.15,0,0,0-2.67,25.13q-.36,12.27,1.75,20.53A45.08,45.08,0,0,0,719.53,572.58Z"/><path class="cls-1" d="M793.4,456.24l.12-1.77Q796,427,799.79,415.08a31.44,31.44,0,0,1,6.41-10.87q8.68-9.3,17.85-11.65,5.4-1.38,8.86.33t4.64,6.31q.8,3.12-.81,13.75a193.27,193.27,0,0,0-2.62,32.54,36.89,36.89,0,0,1,4.66-.33q8.4-.87,11.36,0c2,.59,3.31,2.25,4,4.95a26.24,26.24,0,0,1-.23,14.2,22.85,22.85,0,0,1-7.27,11.38q-3.92,3.18-13.7,6.41c-.26,3.81-.3,9-.15,15.47q.88,8.43,3.11,23.15a66.42,66.42,0,0,0,1.72,10.08q5.49,21.36,26.1,16.07l.8-.21.41-.1c1.61-.42,2.49-.35,2.63.19q.55,2.16-2.7,8.48a62.5,62.5,0,0,1-7.78,11.66,56,56,0,0,1-11.27,9.81,40.21,40.21,0,0,1-12.06,5.69q-14.18,3.65-25.48-3.69t-15.37-23.17a90.87,90.87,0,0,1-2.19-18.32q-.47-11.57-.2-31.25c0-2.3,0-4.73,0-7.28s0-4.06,0-4.54q-5.41,1.26-8.27-.32c-1.89-1.05-3.26-3.2-4.09-6.45q-2.19-8.52,2.4-17.78A28.53,28.53,0,0,1,793.4,456.24Z"/><path class="cls-1" d="M554.37,494.13l.67-5.22a34.24,34.24,0,0,0-7.35,2.68,60.15,60.15,0,0,0-6.67,4.24q-4.63,3.21-6.52,3.69a4.87,4.87,0,0,1-4.22-.79,6.68,6.68,0,0,1-2.59-4q-1.37-5.28,1.45-12a23.55,23.55,0,0,1,8.4-10.59A99.45,99.45,0,0,1,557,461.65a171.25,171.25,0,0,1,24.75-8.44,148.44,148.44,0,0,1,25.91-4.49,74.27,74.27,0,0,1,21.67,1.36,61.67,61.67,0,0,1,18.21,7.15A48,48,0,0,1,661.69,470a50.83,50.83,0,0,1,8.36,17.75,68.22,68.22,0,0,1,1.57,20.94,107.41,107.41,0,0,1-4.34,24.19A89.85,89.85,0,0,1,658,554.34a76.51,76.51,0,0,1-18.46,20.1q-11.89,9.31-22.94,12.16a19.82,19.82,0,0,1-8.72.43q-4-.76-4.63-3.21a11.16,11.16,0,0,1,1-7.83q2-4,8.27-10.84a70.77,70.77,0,0,0,9.8-12.18,51.37,51.37,0,0,0,5.83-18.37q1-9.2-2-20.83-2.85-11.1-8.6-17.84t-15.79-10.65l-3,64.8-.66,11.42q-.55,6.78-.3,22.86.11,27.81-3.09,39.44a49.57,49.57,0,0,1-4.34,10.49,63.41,63.41,0,0,1-13.82,14.14q-8.82,6.81-15.95,8.64a10.42,10.42,0,0,1-8.19-.86c-2.32-1.37-3.9-3.73-4.76-7.07q-1.42-5.53-1.41-16.94T547.8,591l.47-8.2.45-8.9Z"/><path class="cls-1" d="M801.94,456.24l.12-1.77q2.45-27.44,6.28-39.39a31.29,31.29,0,0,1,6.41-10.87q8.68-9.3,17.85-11.65,5.4-1.38,8.85.33t4.64,6.31q.81,3.12-.8,13.75a193.35,193.35,0,0,0-2.63,32.54,37.16,37.16,0,0,1,4.66-.33q8.4-.87,11.37,0c2,.59,3.31,2.25,4,4.95a26.24,26.24,0,0,1-.23,14.2,22.9,22.9,0,0,1-7.26,11.38q-3.91,3.18-13.71,6.41-.37,5.72-.14,15.47.89,8.43,3.1,23.15a66.38,66.38,0,0,0,1.73,10.08q5.48,21.36,26.09,16.07l.81-.21.4-.1c1.62-.42,2.5-.35,2.64.19q.55,2.16-2.71,8.48a62,62,0,0,1-7.77,11.66,56,56,0,0,1-11.28,9.81,40.21,40.21,0,0,1-12.06,5.69q-14.16,3.65-25.47-3.69t-15.37-23.17a91.49,91.49,0,0,1-2.2-18.32q-.45-11.57-.19-31.25,0-3.45,0-7.28c0-2.55,0-4.06,0-4.54-3.62.84-6.37.73-8.27-.32s-3.26-3.2-4.1-6.45q-2.17-8.52,2.4-17.78A28.57,28.57,0,0,1,801.94,456.24Z"/><path class="cls-1" d="M786.68,556.93c-.4-1.54-1.95-2.72-4.65-3.57a14.6,14.6,0,0,0-8.1-.23q-3.24.84-10.89,10.15-13.11,16.07-23.21,18.65-9,2.33-12.59-5.42a14.37,14.37,0,0,0,6.44-.06q6.6-1.69,14.1-9.1a92.34,92.34,0,0,0,14.31-19c5.57-9.22,9-21,10.84-29.94s1.92-14.29.05-21.6q-3.62-14.07-12.89-20.27t-21.93-2.95q-17.52,4.5-33.38,22.13a100.33,100.33,0,0,0-19.36,33.09,129.36,129.36,0,0,0-6.89,32.7q-1.35,16.86,1.81,29.17,4.14,16.1,16.72,23.17t29.43,2.76a54.74,54.74,0,0,0,14.68-6.58,103.36,103.36,0,0,0,15.4-11.6,157.73,157.73,0,0,0,27.83-34.18C786.34,561,787.09,558.55,786.68,556.93Zm-60.82,15.32a44.77,44.77,0,0,1-3.17-7.84q-2.12-8.25-1.75-20.53a170,170,0,0,1,2.67-25.12q4-21.36,8.3-22.47,3.11-.8,5,6.65a95.1,95.1,0,0,1,2.66,17.63,86.85,86.85,0,0,1-.58,17.88,67.44,67.44,0,0,1-5.87,23A41.38,41.38,0,0,1,725.86,572.25Z"/><ellipse class="cls-2" cx="251.3" cy="257.55" rx="80.78" ry="112.67" transform="matrix(0.85, -0.53, 0.53, 0.85, -97.96, 170.94)"/><ellipse class="cls-2" cx="355.43" cy="125.34" rx="78.44" ry="110.97" transform="translate(-20 92.33) rotate(-14.4)"/><ellipse class="cls-2" cx="511.93" cy="109.34" rx="109.37" ry="80.6" transform="translate(383.31 616.77) rotate(-87.83)"/><ellipse class="cls-2" cx="647.11" cy="216.09" rx="110.68" ry="85.03" transform="translate(265.16 781.39) rotate(-74.42)"/><path class="cls-2" d="M718.24,405.57q-22.86-22-42.77-42.8c-38.31-40.1-68.3-77-89.35-110.36C556,210.73,504.19,201.94,444.74,204.8v-.08C386.06,214.8,337.41,234.6,317,281.82,303.68,319,282.37,361.51,253.62,409q-14.9,24.6-32.43,51C191.3,518.32,271.74,616.4,375.77,573c0,0,77-40.46,105.06-38.82v.08c27-7.67,111,15.15,111,15.15C702.77,569.25,760.06,456.08,718.24,405.57Z"/><ellipse class="cls-3" cx="252.97" cy="262.81" rx="65.76" ry="91.18" transform="translate(-100.48 172.61) rotate(-31.78)"/><ellipse class="cls-3" cx="360.8" cy="129.16" rx="65.76" ry="91.18" transform="translate(-20.78 93.78) rotate(-14.4)"/><ellipse class="cls-3" cx="517.34" cy="112" rx="91.18" ry="65.76" transform="translate(385.86 624.74) rotate(-87.83)"/><ellipse class="cls-3" cx="655.08" cy="218.75" rx="91.18" ry="65.76" transform="translate(268.44 791.01) rotate(-74.42)"/><path class="cls-3" d="M696,410.86Q675.72,391.42,658.11,373c-33.9-35.47-60.43-68.09-79.05-97.63-26.67-36.88-72.48-44.65-125.08-42.12v-.07c-51.9,8.92-94.94,26.43-113,68.2-11.79,32.9-30.64,70.51-56.08,112.51Q271.72,435.65,256.2,459C229.76,510.61,300.92,597.38,393,559c0,0,68.14-35.8,92.94-34.35v.07c23.91-6.79,98.17,13.4,98.17,13.4C682.26,555.67,732.94,455.54,696,410.86ZM570.08,343.8c-3.38,41.08-32.1,92.44-87.28,154.54l-.06-.53C415.57,449.21,376.49,405.34,364.31,366c-10.82-37,3.84-64.09,45-64.92,29.4,4.63,49.37,21.45,57.85,53.13,1.51-32.58,17.35-53.22,45-64.07C552.45,282.06,572.64,305.32,570.08,343.8Z"/><ellipse class="cls-4" cx="246.39" cy="251.13" rx="65.76" ry="91.18" transform="translate(-95.32 167.39) rotate(-31.78)"/><ellipse class="cls-4" cx="354.22" cy="117.48" rx="65.76" ry="91.18" transform="translate(-18.09 91.78) rotate(-14.4)"/><ellipse class="cls-4" cx="510.75" cy="100.33" rx="91.18" ry="65.76" transform="translate(391.18 606.93) rotate(-87.83)"/><ellipse class="cls-4" cx="648.5" cy="207.07" rx="91.18" ry="65.76" transform="translate(274.86 776.13) rotate(-74.42)"/><path class="cls-4" d="M689.36,399.19q-20.24-19.45-37.84-37.87c-33.9-35.47-60.43-68.09-79-97.64C545.81,226.81,500,219,447.39,221.56v-.06c-51.9,8.92-94.94,26.43-113,68.2-11.79,32.9-30.64,70.51-56.08,112.51Q265.14,424,249.62,447.3c-26.45,51.64,44.72,138.41,136.76,100,0,0,68.13-35.79,92.94-34.34V513c23.9-6.79,98.17,13.4,98.17,13.4C675.67,544,726.36,443.87,689.36,399.19ZM563.5,332.13c-3.39,41.07-32.1,92.43-87.28,154.54l-.06-.53C409,437.54,369.91,393.67,357.72,354.35c-10.82-37,3.85-64.09,45-64.92,29.39,4.63,49.36,21.45,57.84,53.13,1.51-32.58,17.35-53.22,44.95-64.07C545.87,270.39,566.05,293.65,563.5,332.13Z"/><path class="cls-5" d="M59.15,649l4.17-116.86q.27-13.49,2.59-19.56A19.17,19.17,0,0,1,70.68,506l-.14-.54-1.88.48q-3.91,1-15.16,8.65-12.39,8.24-17.5,9.55c-1.8.46-3.12.46-4,0a4.46,4.46,0,0,1-1.85-3,29,29,0,0,1,0-12.61A45.45,45.45,0,0,1,35.11,495a31,31,0,0,1,8.09-9.87q10.53-7.61,30-15.33a356.73,356.73,0,0,1,43-13.78q25.32-6.5,45.16-3.08t33.08,16.74q13.26,13.32,19,35.51a127.38,127.38,0,0,1,2.72,47.25q-3,24.93-13.63,44-24.76,45-81.75,59.63a179.33,179.33,0,0,1-34.24,5.62q-15.92.92-21.87-2.17c-2.49-1.09-4.13-3.22-4.94-6.38A22.87,22.87,0,0,1,59.15,649Zm56.47-158L115,600.8q0,1,.21,5.28.31,11.32-1.29,17.93a56.59,56.59,0,0,1-4.23,12c2.65-.48,5.6-1.14,8.83-2a106.4,106.4,0,0,0,19.13-6.57,50.87,50.87,0,0,0,13.18-9.08,60.3,60.3,0,0,0,10.16-13,82.77,82.77,0,0,0,10.33-31.07A91.36,91.36,0,0,0,168.84,540a88.18,88.18,0,0,0-12.42-28.24q-8.26-12-18.85-17.45A33.19,33.19,0,0,0,115.62,491Z"/><path class="cls-5" d="M289.94,573.18q3.57,7.74,12.59,5.42Q312.64,576,325.74,560q7.67-9.33,10.89-10.16a14.6,14.6,0,0,1,8.1.23q4.06,1.28,4.65,3.57c.42,1.62-.34,4.08-2.27,7.36a157.38,157.38,0,0,1-27.84,34.18,102.85,102.85,0,0,1-15.4,11.6,54.74,54.74,0,0,1-14.68,6.58q-16.85,4.32-29.42-2.75t-16.72-23.18q-3.17-12.32-1.82-29.17a129.37,129.37,0,0,1,6.9-32.7,100.34,100.34,0,0,1,19.35-33.09q15.87-17.62,33.38-22.12,12.66-3.26,21.93,2.94t12.89,20.27q2.82,11,.15,24.34a84.85,84.85,0,0,1-11,27.2,92.32,92.32,0,0,1-14.3,19q-7.5,7.4-14.11,9.1A14.37,14.37,0,0,1,289.94,573.18Zm-1.38-4.26a41.7,41.7,0,0,0,7.28-10.8,67.67,67.67,0,0,0,5.87-23,86.88,86.88,0,0,0,.57-17.88,94.27,94.27,0,0,0-2.66-17.63q-1.9-7.44-5-6.65-4.31,1.11-8.3,22.47a171.33,171.33,0,0,0-2.66,25.12q-.37,12.29,1.75,20.53A44.56,44.56,0,0,0,288.56,568.92Z"/><path class="cls-5" d="M443,529l-1.81,2.48c-.38.38-2.8,3.46-7.25,9.21q-12.9,16.88-21.52,26.94a143.46,143.46,0,0,1-14.73,15.32q-6.12,5.25-10.43,6.36a14.16,14.16,0,0,1-13.19-3q-5.93-4.9-8.39-14.5-4.17-16.24-4.86-39.06a301.2,301.2,0,0,1,2.14-45.9q3-25.59,14.8-34.08a27.16,27.16,0,0,1,10.25-4.8q8.49-2.18,15.09,1.74t8.83,12.57a46.25,46.25,0,0,1,1.13,13.11,117.76,117.76,0,0,1-2.43,17.49l-.61,4.33q-5.25,27.65-3.9,32.91.79,3.12,3,2.57c1.34-.35,2.85-1.74,4.52-4.19a139.2,139.2,0,0,0,7.3-13q2.87-6.21,8.57-15.9l3.71-6.29,3.13-5.71q10.15-17,17.24-25.26t12.76-9.69q10.79-2.78,15.62,16,1,3.93,2.63,14.18,3.39,19.89,6.86,33.43c.55,1.78,1,3.4,1.47,4.88s.94,3.39,1.54,5.73q3.27,8.83,4.93,13.59l2.92,7.47q1,4.06-5.43,9a43.84,43.84,0,0,1-16,7.43,31.67,31.67,0,0,1-15.91.41A23.06,23.06,0,0,1,452.78,557q-5-5.92-7.47-15.67c-.21-.81-.48-2.26-.82-4.33S443.65,532.28,443,529Z"/><path class="cls-6" d="M67.69,649l4.17-116.86q.27-13.49,2.59-19.56A19.33,19.33,0,0,1,79.23,506l-.14-.54L77.2,506q-3.9,1-15.15,8.65-12.39,8.24-17.51,9.55c-1.8.46-3.11.46-3.94,0a4.43,4.43,0,0,1-1.85-3,28.84,28.84,0,0,1,0-12.61A45.72,45.72,0,0,1,43.65,495a31,31,0,0,1,8.1-9.87q10.53-7.61,29.94-15.33a356.33,356.33,0,0,1,43-13.78q25.32-6.5,45.15-3.08t33.09,16.74q13.26,13.32,19,35.51a127.37,127.37,0,0,1,2.73,47.25q-3,24.93-13.63,44-24.78,45-81.75,59.63A179.58,179.58,0,0,1,95,661.63q-15.92.92-21.88-2.17-3.72-1.63-4.94-6.38A23.87,23.87,0,0,1,67.69,649Zm56.48-158-.65,109.76q0,1,.21,5.28.31,11.32-1.29,17.93a56.59,56.59,0,0,1-4.23,12q4-.72,8.82-2a106.54,106.54,0,0,0,19.14-6.57,50.65,50.65,0,0,0,13.17-9.08,60,60,0,0,0,10.16-13,82.78,82.78,0,0,0,10.34-31.07A91.57,91.57,0,0,0,177.39,540,88,88,0,0,0,165,511.72q-8.25-12-18.84-17.45A33.19,33.19,0,0,0,124.17,491Z"/><path class="cls-6" d="M298.49,573.18q3.56,7.74,12.59,5.42,10.1-2.6,23.21-18.64,7.65-9.33,10.89-10.16a14.6,14.6,0,0,1,8.1.23q4.05,1.28,4.65,3.57c.41,1.62-.34,4.08-2.28,7.36a157.73,157.73,0,0,1-27.83,34.18,103.36,103.36,0,0,1-15.4,11.6,54.74,54.74,0,0,1-14.68,6.58q-16.85,4.32-29.43-2.75t-16.72-23.18q-3.15-12.32-1.81-29.17a129.36,129.36,0,0,1,6.89-32.7A100.36,100.36,0,0,1,276,492.43q15.86-17.62,33.37-22.12,12.66-3.26,21.94,2.94t12.89,20.27q2.81,11,.14,24.34a85,85,0,0,1-11,27.2A92.34,92.34,0,0,1,319,564q-7.5,7.4-14.1,9.1A14.37,14.37,0,0,1,298.49,573.18Zm-1.38-4.26a41.64,41.64,0,0,0,7.27-10.8,67.44,67.44,0,0,0,5.87-23,86.85,86.85,0,0,0,.58-17.88,95.1,95.1,0,0,0-2.66-17.63q-1.91-7.44-5-6.65-4.31,1.11-8.3,22.47a170,170,0,0,0-2.67,25.12q-.36,12.29,1.75,20.53A44.77,44.77,0,0,0,297.11,568.92Z"/><path class="cls-6" d="M451.54,529l-1.8,2.48c-.38.38-2.8,3.46-7.26,9.21q-12.9,16.88-21.51,26.94a143.46,143.46,0,0,1-14.73,15.32q-6.12,5.25-10.43,6.36a14.19,14.19,0,0,1-13.2-3q-5.92-4.9-8.39-14.5-4.17-16.24-4.86-39.06a301.21,301.21,0,0,1,2.15-45.9q3-25.59,14.79-34.08a27.29,27.29,0,0,1,10.26-4.8q8.49-2.18,15.09,1.74t8.83,12.57a46.62,46.62,0,0,1,1.12,13.11,116.26,116.26,0,0,1-2.42,17.49l-.61,4.33q-5.26,27.65-3.9,32.91.79,3.12,2.95,2.57c1.35-.35,2.86-1.74,4.53-4.19a141.61,141.61,0,0,0,7.3-13q2.87-6.21,8.57-15.9l3.7-6.29,3.14-5.71q10.15-17,17.24-25.26t12.75-9.69q10.8-2.78,15.62,16,1,3.93,2.64,14.18,3.38,19.89,6.86,33.43c.55,1.78,1,3.4,1.47,4.88s.94,3.39,1.54,5.73q3.27,8.83,4.92,13.59l2.93,7.47q1,4.06-5.44,9a43.68,43.68,0,0,1-16,7.43,31.63,31.63,0,0,1-15.9.41A23,23,0,0,1,461.33,557q-5-5.92-7.47-15.67c-.21-.81-.49-2.26-.83-4.33S452.19,532.28,451.54,529Z"/><path class="cls-5" d="M553.33,491.93l.67-5.22a33.71,33.71,0,0,0-7.35,2.68,61.41,61.41,0,0,0-6.67,4.23c-3.08,2.15-5.26,3.37-6.51,3.7a4.88,4.88,0,0,1-4.23-.79,6.71,6.71,0,0,1-2.59-3.95q-1.35-5.28,1.45-12a23.7,23.7,0,0,1,8.4-10.6A100.31,100.31,0,0,1,556,459.45,171.25,171.25,0,0,1,580.73,451a147.45,147.45,0,0,1,25.92-4.49,74.33,74.33,0,0,1,21.67,1.35,62.16,62.16,0,0,1,18.2,7.15,48.13,48.13,0,0,1,14.13,12.82A50.83,50.83,0,0,1,669,485.59a68.19,68.19,0,0,1,1.57,20.94,107.41,107.41,0,0,1-4.34,24.19A90,90,0,0,1,657,552.13a76.36,76.36,0,0,1-18.46,20.1q-11.9,9.33-22.94,12.16a19.64,19.64,0,0,1-8.71.44c-2.67-.52-4.22-1.59-4.63-3.21a11.1,11.1,0,0,1,1-7.83q2-4,8.27-10.85a71.08,71.08,0,0,0,9.8-12.17,51.43,51.43,0,0,0,5.83-18.37q1-9.2-2-20.84-2.85-11.08-8.6-17.83t-15.79-10.66l-3,64.81-.66,11.42q-.55,6.76-.3,22.86.11,27.8-3.08,39.43a49.73,49.73,0,0,1-4.35,10.49,63.44,63.44,0,0,1-13.82,14.15q-8.81,6.79-16,8.63a10.38,10.38,0,0,1-8.19-.85c-2.32-1.37-3.9-3.73-4.76-7.07q-1.43-5.55-1.41-16.94t1.56-41.21l.48-8.2.44-8.91Z"/><path class="cls-5" d="M728.41,574.64q3.57,7.73,12.6,5.42,10.1-2.59,23.21-18.65,7.65-9.33,10.89-10.15a14.51,14.51,0,0,1,8.1.22q4,1.28,4.64,3.57c.42,1.62-.34,4.08-2.27,7.36a144.64,144.64,0,0,1-12.84,18.22,147.29,147.29,0,0,1-15,16,102.94,102.94,0,0,1-15.4,11.59,54.6,54.6,0,0,1-14.68,6.58q-16.83,4.34-29.42-2.75t-16.72-23.18q-3.16-12.32-1.82-29.17a129.81,129.81,0,0,1,6.9-32.7A100.36,100.36,0,0,1,706,493.88q15.85-17.62,33.37-22.12,12.66-3.25,21.94,2.94T774.15,495c1.88,7.31,1.73,12.69,0,21.61s-5.26,20.71-10.84,29.93a92.32,92.32,0,0,1-14.3,19q-7.5,7.41-14.1,9.1A14.41,14.41,0,0,1,728.41,574.64Z"/><path class="cls-5" d="M727,570.38a41.65,41.65,0,0,0,7.28-10.81,67.67,67.67,0,0,0,5.87-23,87.53,87.53,0,0,0,.58-17.88,96,96,0,0,0-2.66-17.63q-1.92-7.44-5-6.65-4.32,1.11-8.3,22.47A170,170,0,0,0,722.12,542q-.37,12.29,1.75,20.54A46,46,0,0,0,727,570.38Z"/><path class="cls-5" d="M800.9,454l.13-1.76q2.43-27.45,6.27-39.39A31.2,31.2,0,0,1,813.71,402q8.68-9.3,17.85-11.65,5.4-1.39,8.85.32t4.65,6.32q.8,3.12-.81,13.75a192.2,192.2,0,0,0-2.62,32.53,36.87,36.87,0,0,1,4.65-.33q8.41-.85,11.37,0c2,.6,3.31,2.25,4,5a26.3,26.3,0,0,1-.23,14.19,23,23,0,0,1-7.27,11.39q-3.92,3.17-13.71,6.4-.37,5.73-.14,15.48.88,8.43,3.1,23.15a67.64,67.64,0,0,0,1.73,10.08q5.48,21.36,26.09,16.07l.81-.21.41-.11c1.61-.41,2.49-.35,2.63.19q.55,2.17-2.71,8.48a61.65,61.65,0,0,1-7.77,11.66,56.08,56.08,0,0,1-11.28,9.82,40.52,40.52,0,0,1-12.05,5.69q-14.17,3.64-25.48-3.7t-15.37-23.16A90.89,90.89,0,0,1,798.23,535q-.47-11.56-.2-31.24,0-3.45,0-7.28c0-2.55,0-4.06,0-4.54q-5.41,1.25-8.27-.33t-4.09-6.44q-2.19-8.54,2.4-17.78A28.58,28.58,0,0,1,800.9,454Z"/><path class="cls-6" d="M561.88,491.93l.67-5.22a33.52,33.52,0,0,0-7.35,2.68,61.41,61.41,0,0,0-6.67,4.23c-3.09,2.15-5.26,3.37-6.52,3.7a4.86,4.86,0,0,1-4.22-.79,6.71,6.71,0,0,1-2.59-3.95q-1.37-5.28,1.44-12a23.72,23.72,0,0,1,8.41-10.6,99.72,99.72,0,0,1,19.48-10.55A171.25,171.25,0,0,1,589.28,451a147.35,147.35,0,0,1,25.91-4.49,74.28,74.28,0,0,1,21.67,1.35A62.22,62.22,0,0,1,655.07,455a48.13,48.13,0,0,1,14.13,12.82,50.83,50.83,0,0,1,8.36,17.75,68.19,68.19,0,0,1,1.57,20.94,107.41,107.41,0,0,1-4.34,24.19,90.36,90.36,0,0,1-9.29,21.41A76.53,76.53,0,0,1,647,572.23q-11.89,9.33-22.94,12.16a19.69,19.69,0,0,1-8.72.44q-4-.78-4.63-3.21a11.11,11.11,0,0,1,1-7.83q2-4,8.27-10.85a70.55,70.55,0,0,0,9.79-12.17,51.25,51.25,0,0,0,5.84-18.37q1-9.2-2-20.84-2.85-11.08-8.6-17.83T609.3,483.07l-3,64.81-.66,11.42q-.55,6.76-.3,22.86.11,27.8-3.09,39.43a49.15,49.15,0,0,1-4.34,10.49,63.44,63.44,0,0,1-13.82,14.15q-8.82,6.79-15.95,8.63a10.37,10.37,0,0,1-8.19-.85q-3.48-2.06-4.76-7.07-1.42-5.55-1.41-16.94t1.55-41.21l.48-8.2.44-8.91Z"/><path class="cls-6" d="M809.45,454l.12-1.76q2.45-27.45,6.28-39.39a31.32,31.32,0,0,1,6.4-10.87q8.68-9.3,17.86-11.65c3.59-.93,6.55-.82,8.85.32s3.85,3.25,4.64,6.32q.81,3.12-.8,13.75a192.27,192.27,0,0,0-2.63,32.53,37,37,0,0,1,4.66-.33q8.4-.85,11.37,0c2,.6,3.31,2.25,4,5a26.2,26.2,0,0,1-.23,14.19,22.93,22.93,0,0,1-7.26,11.39q-3.93,3.17-13.71,6.4-.37,5.73-.14,15.48.89,8.43,3.1,23.15a67.69,67.69,0,0,0,1.72,10.08q5.49,21.36,26.1,16.07l.81-.21.4-.11c1.62-.41,2.5-.35,2.64.19q.55,2.17-2.71,8.48a62.13,62.13,0,0,1-7.77,11.66,56.08,56.08,0,0,1-11.28,9.82,40.46,40.46,0,0,1-12.06,5.69q-14.17,3.64-25.48-3.7T809,553.37a91.51,91.51,0,0,1-2.2-18.33q-.45-11.56-.19-31.24,0-3.45,0-7.28c0-2.55,0-4.06,0-4.54-3.62.83-6.37.72-8.27-.33s-3.26-3.2-4.1-6.44q-2.19-8.54,2.4-17.78A28.64,28.64,0,0,1,809.45,454Z"/><path class="cls-6" d="M794.19,554.72q-.6-2.29-4.65-3.56a14.6,14.6,0,0,0-8.1-.23q-3.24.83-10.89,10.15-13.11,16.06-23.21,18.65-9,2.32-12.59-5.42a14.36,14.36,0,0,0,6.44-.07q6.6-1.69,14.1-9.1a91.78,91.78,0,0,0,14.3-19c5.58-9.21,9.06-21,10.84-29.93s1.93-14.3.05-21.6q-3.6-14.07-12.88-20.27t-21.94-2.95q-17.5,4.5-33.37,22.13a100.22,100.22,0,0,0-19.36,33.08,130,130,0,0,0-6.9,32.71q-1.34,16.86,1.82,29.16,4.14,16.11,16.72,23.18T734,614.45a54.92,54.92,0,0,0,14.68-6.58,103,103,0,0,0,15.4-11.6,147.09,147.09,0,0,0,15-16,145.36,145.36,0,0,0,12.84-18.22C793.84,558.8,794.6,556.35,794.19,554.72Zm-60.83,15.33a45.69,45.69,0,0,1-3.16-7.84q-2.12-8.25-1.75-20.53a170.15,170.15,0,0,1,2.67-25.13q4-21.36,8.3-22.46,3.09-.79,5,6.64a96.08,96.08,0,0,1,2.66,17.63,87.63,87.63,0,0,1-.58,17.89,67.62,67.62,0,0,1-5.87,23A41.48,41.48,0,0,1,733.36,570.05Z"/></g></g></svg>