<svg xmlns="http://www.w3.org/2000/svg" viewBox="0 0 101.02 102.78">
  <defs>
    <style>.cls-1{fill:#fff;}.cls-2{fill:#ff5c8d;}.cls-3{fill:#ffc0d3;}</style>
  </defs>
  <g id="Camada_2" data-name="Camada 2">
    <g id="Layer_1" data-name="Layer 1">
      <ellipse class="cls-1" cx="15.98" cy="45.35" rx="14.22" ry="19.84"
               transform="translate(-21.49 15.21) rotate(-31.78)"/>
      <ellipse class="cls-1" cx="34.31" cy="22.07" rx="13.81" ry="19.54"
               transform="translate(-4.41 9.23) rotate(-14.4)"/>
      <ellipse class="cls-1" cx="61.87" cy="19.25" rx="19.26" ry="14.19"
               transform="translate(40.29 80.35) rotate(-87.83)"/>
      <ellipse class="cls-1" cx="85.67" cy="38.05" rx="19.49" ry="14.97"
               transform="translate(26.01 110.35) rotate(-74.42)"/>
      <path class="cls-1"
            d="M98.2,71.41q-4-3.87-7.53-7.54A128.08,128.08,0,0,1,74.93,44.44C69.63,37.1,60.51,35.56,50,36.06h0c-10.33,1.77-18.9,5.26-22.49,13.57A128.32,128.32,0,0,1,16.39,72q-2.62,4.33-5.71,9c-5.27,10.27,8.9,27.54,27.22,19.9,0,0,13.56-7.13,18.49-6.84v0c4.75-1.35,19.53,2.66,19.53,2.66C95.47,100.23,105.56,80.31,98.2,71.41Z"/>
      <ellipse class="cls-2" cx="16.27" cy="46.27" rx="11.58" ry="16.05"
               transform="translate(-21.93 15.51) rotate(-31.78)"/>
      <ellipse class="cls-2" cx="35.26" cy="22.74" rx="11.58" ry="16.05"
               transform="translate(-4.55 9.48) rotate(-14.4)"/>
      <ellipse class="cls-2" cx="62.82" cy="19.72" rx="16.05" ry="11.58"
               transform="translate(40.74 81.75) rotate(-87.83)"/>
      <ellipse class="cls-2" cx="87.08" cy="38.52" rx="16.05" ry="11.58"
               transform="translate(26.59 112.05) rotate(-74.42)"/>
      <path class="cls-2"
            d="M94.27,72.34q-3.55-3.42-6.66-6.67A112.54,112.54,0,0,1,73.69,48.48c-4.7-6.49-12.76-7.86-22-7.41h0c-9.13,1.57-16.71,4.65-19.89,12A113.63,113.63,0,0,1,21.9,72.87q-2.32,3.84-5.06,7.94c-4.65,9.1,7.88,24.37,24.08,17.61,0,0,12-6.3,16.37-6v0c4.21-1.2,17.28,2.36,17.28,2.36C91.86,97.84,100.79,80.21,94.27,72.34ZM72.11,60.53c-.6,7.24-5.65,16.28-15.37,27.22v-.1C44.9,79.09,38,71.37,35.88,64.45,34,57.93,36.55,53.16,43.8,53c5.18.81,8.69,3.77,10.19,9.35.26-5.73,3-9.37,7.91-11.28C69,49.66,72.56,53.76,72.11,60.53Z"/>
      <ellipse class="cls-3" cx="15.11" cy="44.22" rx="11.58" ry="16.05"
               transform="translate(-21.02 14.59) rotate(-31.78)"/>
      <ellipse class="cls-3" cx="34.1" cy="20.69" rx="11.58" ry="16.05"
               transform="translate(-4.07 9.13) rotate(-14.4)"/>
      <ellipse class="cls-3" cx="61.66" cy="17.67" rx="16.05" ry="11.58"
               transform="translate(41.68 78.62) rotate(-87.83)"/>
      <ellipse class="cls-3" cx="85.92" cy="36.46" rx="16.05" ry="11.58"
               transform="translate(27.72 109.43) rotate(-74.42)"/>
      <path class="cls-3"
            d="M93.11,70.29q-3.56-3.44-6.66-6.67A113.51,113.51,0,0,1,72.53,46.43c-4.7-6.49-12.76-7.86-22-7.42h0c-9.14,1.57-16.72,4.65-19.9,12a114.33,114.33,0,0,1-9.87,19.81q-2.32,3.83-5.06,7.94C11,87.85,23.56,103.13,39.76,96.37c0,0,12-6.31,16.37-6.05h0c4.21-1.19,17.29,2.36,17.29,2.36C90.7,95.78,99.63,78.16,93.11,70.29ZM71,58.48c-.6,7.23-5.65,16.28-15.37,27.21V85.6C43.74,77,36.86,69.32,34.72,62.39c-1.91-6.51.67-11.28,7.92-11.43,5.18.82,8.69,3.78,10.19,9.36C53.09,54.58,55.88,51,60.74,49,67.85,47.61,71.4,51.7,71,58.48Z"/>
    </g>
  </g>
</svg>
